# xmcd
#
# Track frame offsets:
#	150
#	17334
#	34779
#	55425
#
# Disc length: 1026 seconds
# Revision: 0
# Processed by: cddbd v1.5.2PL0 Copyright (c) Steve Scherf et al.
# Submitted via: dBpowerAMP V12.0
#
DISCID=28040004
DTITLE=Various Artist - 30 Anos - O Musical
DYEAR=2013
DGENRE=Sertanejo
TTITLE0=Daniel - Tantinho
TTITLE1=Daniel - Maravida
TTITLE2=Daniel - Fale Um Pouco De Você
TTITLE3=Daniel e Thalia - Estou Apaixonado (Estoy Enamorado)
EXTD=
EXTT0=
EXTT1=
EXTT2=
EXTT3=
PLAYORDER=
